<?xml version="1.0" standalone="no"?>
<!DOCTYPE svg PUBLIC "-//W3C//DTD SVG 20010904//EN"
 "http://www.w3.org/TR/2001/REC-SVG-20010904/DTD/svg10.dtd">
<svg version="1.0" xmlns="http://www.w3.org/2000/svg"
 width="80.000000pt" height="80.000000pt" viewBox="0 0 80.000000 80.000000"
 preserveAspectRatio="xMidYMid meet">
<metadata>
Created by potrace 1.11, written by Peter Selinger 2001-2013
</metadata>
<g transform="translate(0.000000,80.000000) scale(0.100000,-0.100000)"
fill="#000000" stroke="none">
<path d="M120 765 c-20 -24 -15 -67 9 -83 l21 -15 -24 -22 c-28 -26 -25 -69 5
-88 23 -14 25 -27 4 -27 -9 0 -20 -12 -25 -26 -11 -28 0 -57 27 -73 16 -8 15
-11 -7 -29 -31 -25 -33 -58 -3 -82 l24 -18 -27 -27 c-15 -15 -23 -32 -20 -41
3 -9 6 -20 6 -25 0 -14 45 -29 69 -22 11 3 23 14 27 26 l6 20 17 -21 c25 -33
86 -34 96 -2 7 23 25 27 25 5 0 -19 41 -36 69 -28 11 3 23 14 26 24 7 22 25
26 25 6 0 -15 37 -34 58 -31 6 1 16 2 21 3 5 0 13 10 16 21 7 23 25 27 25 6 0
-7 14 -19 31 -27 30 -12 33 -11 55 14 26 30 23 52 -9 78 -19 16 -19 16 7 42
26 26 26 45 3 75 -17 22 -65 14 -83 -13 l-17 -26 -11 23 c-16 33 -69 37 -90 6
l-16 -22 -16 23 c-13 18 -24 22 -50 19 -26 -3 -39 2 -55 18 -19 20 -19 23 -3
38 15 16 15 18 0 35 -15 16 -14 19 7 39 14 14 30 19 44 16 27 -7 63 12 63 34
1 14 4 13 19 -5 21 -26 71 -48 71 -33 0 6 7 10 15 10 8 0 14 3 14 8 -5 30 3
35 22 12 16 -18 31 -25 60 -26 21 0 37 1 35 4 -3 2 -1 15 4 27 11 28 -21 75
-50 75 -19 0 -45 -21 -52 -41 -2 -7 -17 1 -34 19 l-31 30 24 13 c12 7 23 18
23 26 0 20 18 16 25 -6 8 -27 42 -36 71 -20 31 16 34 73 5 89 -31 16 -49 12
-73 -15 -22 -25 -23 -25 -30 -6 -8 22 -48 37 -73 27 -9 -3 -19 -15 -23 -26 -8
-20 -8 -20 -30 5 -28 33 -66 33 -88 0 l-16 -25 -20 25 c-25 33 -63 33 -84 0
l-16 -25 -20 25 c-22 28 -59 33 -78 10z m150 -109 c0 -3 -7 -6 -16 -6 -9 0
-18 -9 -21 -20 -3 -11 -7 -20 -9 -20 -5 0 -54 50 -54 55 0 2 10 15 23 27 l22
23 28 -27 c15 -14 27 -29 27 -32z m123 14 c7 -1 0 -8 -15 -16 -16 -8 -28 -21
-28 -29 0 -21 -4 -19 -38 15 -31 30 -31 40 0 40 10 0 17 3 17 8 -5 32 3 35 26
9 14 -15 31 -27 38 -27z m80 36 c7 -17 -37 -61 -52 -51 -17 10 -13 21 14 35
13 7 22 17 19 22 -3 4 -1 8 4 8 6 0 12 -6 15 -14z m32 -35 c3 -6 -4 -15 -15
-21 -11 -6 -20 -17 -20 -25 0 -18 -17 -20 -23 -2 -6 17 12 49 24 42 5 -4 9 -1
9 4 0 14 17 14 25 2z m-235 -135 c0 -3 -7 -6 -16 -6 -9 0 -18 -9 -21 -20 -3
-11 -7 -20 -8 -20 -2 0 -17 13 -34 29 -29 27 -30 30 -12 36 11 3 23 15 26 26
6 18 8 17 36 -10 16 -16 29 -32 29 -35z m80 40 c0 -22 -38 -49 -57 -41 -16 6
-16 8 4 17 13 6 25 19 28 30 7 20 25 15 25 -6z m-106 -131 l25 -25 -29 -28
-28 -29 -11 24 c-6 12 -17 23 -26 23 -8 0 -15 5 -15 10 0 6 7 10 15 10 8 0 19
9 25 20 13 25 14 25 44 -5z m96 -41 c20 -36 5 -40 -29 -8 -20 18 -26 31 -19
35 17 10 34 1 48 -27z m-95 -80 c26 -26 26 -26 6 -41 -12 -8 -21 -21 -21 -30
0 -11 -9 -7 -34 14 -31 25 -50 53 -26 38 5 -3 17 6 26 20 9 14 18 25 20 25 2
0 15 -12 29 -26z m105 11 c0 -8 3 -15 8 -15 4 0 13 -4 21 -9 11 -7 9 -15 -14
-38 l-28 -28 -29 28 c-28 28 -37 44 -18 32 5 -3 17 6 26 20 18 28 34 33 34 10z
m135 -11 c19 -19 23 -30 16 -37 -14 -14 -62 29 -54 49 7 19 8 18 38 -12z m120
0 l26 -26 -26 -24 -27 -25 -24 25 -25 24 23 25 c13 14 24 25 25 26 1 1 14 -11
28 -25z m-146 -33 c17 -17 18 -22 6 -38 -14 -17 -14 -17 -15 0 0 9 -11 22 -25
29 -13 6 -22 15 -19 19 9 15 33 10 53 -10z"/>
<path d="M369 518 c-8 -18 -4 -68 5 -69 6 0 21 -2 34 -3 13 -2 22 3 22 11 0 8
-8 13 -17 11 -13 -2 -19 5 -21 25 -2 15 -8 27 -13 27 -5 0 -9 -1 -10 -2z"/>
<path d="M454 485 c-1 -24 3 -35 12 -35 9 0 14 12 14 35 0 47 -25 47 -26 0z"/>
<path d="M500 486 c0 -41 17 -56 28 -26 l8 21 18 -20 c24 -26 36 -18 36 23 0
22 -5 33 -15 33 -8 0 -15 -9 -15 -19 0 -17 -1 -17 -20 2 -29 29 -40 25 -40
-14z"/>
<path d="M617 513 c-10 -10 -8 -61 2 -68 5 -3 12 -1 15 3 3 5 18 7 33 4 27 -5
27 -4 11 14 -15 17 -15 20 0 33 20 19 -2 29 -23 11 -11 -9 -15 -9 -15 -1 0 12
-13 15 -23 4z"/>
<path d="M115 113 c3 -8 5 -19 5 -24 0 -5 5 -9 11 -9 5 0 8 4 5 9 -3 5 2 15
11 22 13 11 15 11 9 1 -4 -7 -5 -20 -2 -28 4 -11 10 -12 25 -4 13 6 22 6 26 0
9 -15 37 1 31 19 -5 13 -3 13 8 -2 13 -17 14 -16 19 3 4 15 1 19 -15 17 -11
-2 -24 -10 -29 -18 -7 -11 -9 -10 -10 6 0 11 -3 14 -6 7 -4 -10 -8 -10 -19 -1
-22 18 -76 19 -69 2z m65 -13 c0 -5 -5 -10 -11 -10 -5 0 -7 5 -4 10 3 6 8 10
11 10 2 0 4 -4 4 -10z"/>
<path d="M296 114 c-10 -25 2 -34 43 -32 21 0 43 -2 49 -6 7 -4 15 -1 18 8 5
13 8 13 19 2 20 -19 75 -8 75 15 0 11 -7 19 -15 19 -8 0 -15 -7 -15 -15 0 -11
-5 -10 -21 6 -12 12 -24 17 -28 12 -8 -12 -51 -14 -51 -2 0 19 -19 8 -23 -13
l-4 -23 -2 23 c-1 26 -35 31 -45 6z m31 -9 c0 -8 -4 -15 -9 -15 -4 0 -8 7 -8
15 0 8 4 15 8 15 5 0 9 -7 9 -15z"/>
<path d="M512 100 c0 -19 2 -27 5 -17 2 9 2 25 0 35 -3 9 -5 1 -5 -18z"/>
<path d="M551 108 c-1 -25 2 -27 39 -26 30 0 40 5 41 17 0 12 2 11 9 -4 8 -19
9 -19 9 3 1 26 -25 30 -32 5 -4 -14 -5 -12 -6 5 0 12 -5 22 -11 22 -5 0 -9 -3
-9 -7 6 -37 -27 -47 -34 -10 -4 19 -4 19 -6 -5z"/>
<path d="M660 108 c0 -16 6 -24 19 -25 16 -1 18 2 12 20 -11 30 -31 33 -31 5z"/>
</g>
</svg>
